# xmcd
#
# Track frame offsets:
#	150
#	14043
#	27711
#	40949
#	50324
#	62935
#	73915
#	92432
#	106502
#	120203
#	134391
#	149097
#	159727
#	168711
#	181239
#	194445
#	203849
#	213375
#	224384
#	236466
#	247341
#	258553
#	274600
#	288216
#	305273
#	319763
#
# Disc length: 4546 seconds
#
# Revision: 1
# Processed by: cddbd v1.5.2PL0 Copyright (c) Steve Scherf et al.
# Submitted via: audiograbber 1.83.01
#
DISCID=9111c01a
DTITLE=Various Artist - Blues Kings of Baton Rouge (1954-71)(Bear Family)[CD1]
DYEAR=2019
DGENRE=Blues
TTITLE0=Slim Harpo - Blues Hang-Over
TTITLE1=Butch Cage and Willie B Thomas - Who Broke the Lock
TTITLE2=Lightnin' Slim - Bad Luck
TTITLE3=Lightnin' Slim - Bugger Bugger Boy
TTITLE4=Schoolboy Cleve - Strange Letter Blues
TTITLE5=Clarence Edwards - Smokestack Lightning
TTITLE6=Robert Pete Williams - Angola Special
TTITLE7=Butch Cage and Willie B Thomas - Jelly Roll
TTITLE8=Slim Harpo - I'm a King Bee
TTITLE9=Lonesome Sundown - My Home is a Prison
TTITLE10=Lightnin' Slim - Mean Ol' Lonesome Train
TTITLE11=Clarence Edwards - Stack O' Dollars
TTITLE12=Robert Pete Williams - Come Here Baby
TTITLE13=Sally Dotson and Smokey Babe - Your Dice Won't Pass
TTITLE14=Lazy Lester - They Call Me Lazy
TTITLE15=Jimmy Dotson - Looking for My Baby
TTITLE16=Raful Neal - Crying Hard
TTITLE17=Lazy Lester - I'm a Lover Not a Fighter
TTITLE18=Lightnin' Slim - Lightnin's Troubles
TTITLE19=Slim Harpo - One More Day
TTITLE20=Lightning Slim - Rooster Blues
TTITLE21=Lightnin' Slim and Lazy Lester - Trip to Chicago (alt)
TTITLE22=Slim Harpo - What a Dream
TTITLE23=Smokey Babe and Clyde Causey - Black Gal
TTITLE24=Smokey Babe and Lazy Lester - Mississippi River So Deep and Wide
TTITLE25=Herman E. Johnson - Depression Blues
EXTD=
EXTT0=
EXTT1=
EXTT2=
EXTT3=
EXTT4=
EXTT5=
EXTT6=
EXTT7=
EXTT8=
EXTT9=
EXTT10=
EXTT11=
EXTT12=
EXTT13=
EXTT14=
EXTT15=
EXTT16=
EXTT17=
EXTT18=
EXTT19=
EXTT20=
EXTT21=
EXTT22=
EXTT23=
EXTT24=
EXTT25=
PLAYORDER=
